<?xml version="1.0" encoding="utf-8"?>
<?xml-stylesheet type="text/xsl" href="rss1.xsl"?>
<rss version="2.0" xmlns:atom="http://www.w3.org/2005/Atom" xmlns:content="http://purl.org/rss/1.0/modules/content/" xmlns:dc="http://purl.org/dc/elements/1.1/" xmlns:media="http://search.yahoo.com/mrss/">
<channel>
 <title>Getty</title>
 <link>http://www.gettyimg.com/</link>
 <atom:link href="http://www.gettyimg.com/" rel="self" type="application/rss+xml" />

 
                <item>
                <title><![CDATA[【Apple Music】WEB-RiP - Alok &amp; Ava Max - Car Keys (Ayla) (1080p)]]></title>
                <link><![CDATA[https://sharemania.us/threads/alok-ava-max-car-keys-ayla-1080p.226097/]]></link>
                <description><![CDATA[<article>
<blockquote class="messageText SelectQuoteContainer ugc baseHtml">
<img src="https://i.imgur.com/fyKJKM4.jpg" class="bbCodeImage LbImage" alt="[​IMG]" data-url="https://i.imgur.com/fyKJKM4.jpg" style=""><br>
<br>
<div class="bbCodeBlock bbCodeCode">
<div class="type">Code:</div>
<pre>General
Complete name                  : C:\Users\asus\Desktop\Alok &amp; Ava Max - Car Keys (Ayla).mp4
Format                         : MPEG-4
Format profile                 : Base Media
Codec ID                       : isom (isom/iso2/avc1/mp41)
File size                      : 182 MiB
Duration                       : 2 min 28 s
Overall bit rate               : 10.3 Mb/s
Frame rate                     : 23.976 FPS
Movie name                     : Car Keys (Ayla) [Official Video]
Performer                      : Alok &amp; Ava Max
Genre                          : Dance
ContentType                    : Music Video
Recorded date                  : 2023-07-24 07:00:00 UTC
Writing application            : Lavf57.29.101
Copyright                      : ℗ (C) 2023 Alok Music/B1 Recordings, a Sony Music Entertainment company.

Video
ID                             : 1
Format                         : AVC
Format/Info                    : Advanced Video Codec
Format profile                 : High@L4
Format settings                : CABAC / 5 Ref Frames
Format settings, CABAC         : Yes
Format settings, Reference fra : 5 frames
Codec ID                       : avc1
Codec ID/Info                  : Advanced Video Coding
Duration                       : 2 min 28 s
Bit rate                       : 9 988 kb/s
Width                          : 1 440 pixels
Height                         : 1 080 pixels
Display aspect ratio           : 4:3
Frame rate mode                : Constant
Frame rate                     : 23.976 (24000/1001) FPS
Color space                    : YUV
Chroma subsampling             : 4:2:0
Bit depth                      : 8 bits
Scan type                      : Progressive
Bits/(Pixel*Frame)             : 0.268
Stream size                    : 177 MiB (97%)
Color range                    : Limited
Color primaries                : BT.709
Transfer characteristics       : BT.709
Matrix coefficients            : BT.709
Codec configuration box        : avcC

Audio
ID                             : 2
Format                         : AAC LC
Format/Info                    : Advanced Audio Codec Low Complexity
Codec ID                       : mp4a-40-2
Duration                       : 2 min 28 s
Duration_LastFrame             : -17 ms
Bit rate mode                  : Constant
Bit rate                       : 265 kb/s
Channel(s)                     : 2 channels
Channel layout                 : L R
Sampling rate                  : 48.0 kHz
Frame rate                     : 46.875 FPS (1024 SPF)
Compression mode               : Lossy
Stream size                    : 4.71 MiB (3%)
Default                        : Yes
Alternate group                : 1

</pre>
</div>
<div class="bbCodeBlock bbCodeVfcHH HiddenContent">
<div class="attribution type">Hidden Content:</div>
<blockquote>You must either reply or click 'Like' to see the hidden information contained here.</blockquote>
</div>
<div class="messageTextEndMarker">&nbsp;</div>
</blockquote>
</article>]]></description>
                <author><![CDATA[vitalya3]]></author>
                </item>

                
                <item>
                <title><![CDATA[【Requests】[REQ AUD] - Love or Loved, Pt. 1 - EP Dolby Atmos (M4A)]]></title>
                <link><![CDATA[https://sharemania.us/threads/love-or-loved-pt-1-ep-dolby-atmos-m4a.226098/]]></link>
                <description><![CDATA[<article>
<blockquote class="messageText SelectQuoteContainer ugc baseHtml">
Hello, Can you help rip this EP <br>
<a href="https://music.apple.com/us/album/love-or-loved-pt-1-ep/1647409980" target="_blank" class="externalLink" rel="nofollow">https://music.apple.com/us/album/love-or-loved-pt-1-ep/1647409980</a><br>
<br>
For the people who read this Thank you for your help
<div class="messageTextEndMarker">&nbsp;</div>
</blockquote>
</article>]]></description>
                <author><![CDATA[Xander454]]></author>
                </item>

                </channel></rss>